<?xml version="1.0" encoding="UTF-8"?>
<svg id="Capa_1" data-name="Capa 1" xmlns="http://www.w3.org/2000/svg" xmlns:xlink="http://www.w3.org/1999/xlink" viewBox="0 0 120.65 148.3">
  <defs>
    <style>
      .cls-1, .cls-2 {
        fill: none;
      }

      .cls-3 {
        fill: #1d1d1b;
      }

      .cls-2 {
        stroke: #000;
        stroke-miterlimit: 10;
      }

      .cls-4 {
        clip-path: url(#clippath);
      }
    </style>
    <clipPath id="clippath">
      <rect class="cls-1" x=".25" y=".25" width="120.15" height="147.81"/>
    </clipPath>
  </defs>
  <g class="cls-4">
    <path class="cls-3" d="M29.36,73.91s-17.42,4.72-12.05-30.47c.02-.13.04-.26.05-.4.22-2.05,2.97-23.62,23.87-36.18C50.69,1.17,56.56.06,60.18.64c3.65.58,6.07,4.1,5.45,7.75-.54,3.18-2.38,8.32-8.24,13.9-4.91,4.68-7.9,9.02-9.65,12.15-1.8,3.23-2.63,6.94-2.23,10.62.36,3.3,1.61,6.21,5.37,2.95,1.15-1,2.09-2.23,2.84-3.55,2.97-5.19,13.9-22.61,24.28-18.31,6.08,2.52,7.86,7.16,8.12,11.16.24,3.7-.86,7.36-2.86,10.49-3.08,4.81-17.17,19.16-21.76,23-3.07,2.57-6.05,4.82-9.13,7.38l-25.26,20.98c-2.24,1.86-4.14,4.13-5.42,6.75-1.8,3.7-2.94,8.9.68,13.97,6.17,8.64,16.92-6.19,18.49-8.46.17-.24.34-.47.53-.7,1.69-2.05,9.58-10.8,18.41-7.41,1.8.69,3.35,1.9,4.62,3.35,3.32,3.79,12.35,13.69,16.54,14.41,5.19.89,13.16-3.83,11.87-12.9,0,0-.89-6.82-15.28-4.9-14.39,1.93-15.5-13.63-15.5-13.63,0,0-2.09-22.11,27.22-20.19,28.69,1.88,30.85,36.19,30.85,36.19,0,0,1.19,21.66-17.8,31.45-16.14,8.32-25.95-9.08-28.53-14.48-.63-1.32-1.34-2.58-2.16-3.79-2.6-3.82-8.11-11.26-12.17-12.13-5.49-1.19-9.56.57-14.22,6.94,0,0-3.28,4.93-4.17,12.05,0,0-1.19,17.35-21.36,21.66-11.21,2.39-16-4.74-18.06-11.55-2.15-7.15-1.26-14.9,2.28-21.48,2.97-5.53,8.18-12.13,17.26-17.1,14.19-7.76,30.12-21.48,37.26-27.92,3.24-2.92,5.78-6.56,7.22-10.68,1.53-4.38,2.07-9.35-2.68-10.44-1.65-.38-3.39-.02-4.83.87-2.33,1.43-6.18,4.36-8.63,9.17-1.73,3.4-4.35,3.55-6.63,2.76-3.04-1.06-5.06-3.94-5.27-7.15-.28-4.28-.05-10.98,3.3-15.48,3.64-4.89,10.84-12.58,14.45-16.87,2.3-2.72,3.18-6.44,2.44-9.92-.54-2.56-1.98-5.04-5.35-5.89-2.25-.57-4.63-.07-6.58,1.19-3.44,2.22-9.21,7.15-10.45,15.77-1.78,12.46-1.48,43.16-1.48,43.16,0,0,.15,6.82-4.6,8.16"/>
    <path class="cls-2" d="M29.36,73.91s-17.42,4.72-12.05-30.47c.02-.13.04-.26.05-.4.22-2.05,2.97-23.62,23.87-36.18C50.69,1.17,56.56.06,60.18.64c3.65.58,6.07,4.1,5.45,7.75-.54,3.18-2.38,8.32-8.24,13.9-4.91,4.68-7.9,9.02-9.65,12.15-1.8,3.23-2.63,6.94-2.23,10.62.36,3.3,1.61,6.21,5.37,2.95,1.15-1,2.09-2.23,2.84-3.55,2.97-5.19,13.9-22.61,24.28-18.31,6.08,2.52,7.86,7.16,8.12,11.16.24,3.7-.86,7.36-2.86,10.49-3.08,4.81-17.17,19.16-21.76,23-3.07,2.57-6.05,4.82-9.13,7.38l-25.26,20.98c-2.24,1.86-4.14,4.13-5.42,6.75-1.8,3.7-2.94,8.9.68,13.97,6.17,8.64,16.92-6.19,18.49-8.46.17-.24.34-.47.53-.7,1.69-2.05,9.58-10.8,18.41-7.41,1.8.69,3.35,1.9,4.62,3.35,3.32,3.79,12.35,13.69,16.54,14.41,5.19.89,13.16-3.83,11.87-12.9,0,0-.89-6.82-15.28-4.9-14.39,1.93-15.5-13.63-15.5-13.63,0,0-2.09-22.11,27.22-20.19,28.69,1.88,30.85,36.19,30.85,36.19,0,0,1.19,21.66-17.8,31.45-16.14,8.32-25.95-9.08-28.53-14.48-.63-1.32-1.34-2.58-2.16-3.79-2.6-3.82-8.11-11.26-12.17-12.13-5.49-1.19-9.56.57-14.22,6.94,0,0-3.28,4.93-4.17,12.05,0,0-1.19,17.35-21.36,21.66-11.21,2.39-16-4.74-18.06-11.55-2.15-7.15-1.26-14.9,2.28-21.48,2.97-5.53,8.18-12.13,17.26-17.1,14.19-7.76,30.12-21.48,37.26-27.92,3.24-2.92,5.78-6.56,7.22-10.68,1.53-4.38,2.07-9.35-2.68-10.44-1.65-.38-3.39-.02-4.83.87-2.33,1.43-6.18,4.36-8.63,9.17-1.73,3.4-4.35,3.55-6.63,2.76-3.04-1.06-5.06-3.94-5.27-7.15-.28-4.28-.05-10.98,3.3-15.48,3.64-4.89,10.84-12.58,14.45-16.87,2.3-2.72,3.18-6.44,2.44-9.92-.54-2.56-1.98-5.04-5.35-5.89-2.25-.57-4.63-.07-6.58,1.19-3.44,2.22-9.21,7.15-10.45,15.77-1.78,12.46-1.48,43.16-1.48,43.16,0,0,.15,6.82-4.6,8.16Z"/>
  </g>
</svg>